<svg clip-rule="evenodd" fill-rule="evenodd" stroke-linejoin="round" stroke-miterlimit="2" viewBox="0 0 302 302" xmlns="http://www.w3.org/2000/svg"><path d="m301.498 291.378c0-17.607 14.294-31.902 31.902-31.902 17.607 0 31.902 14.295 31.902 31.902 8.804-15.248 28.331-20.481 43.579-11.677 15.249 8.804 20.481 28.331 11.677 43.579 15.249-8.803 34.776-3.571 43.58 11.677 8.803 15.249 3.571 34.776-11.677 43.58 17.607 0 31.902 14.295 31.902 31.902s-14.295 31.902-31.902 31.902c15.248 8.804 20.48 28.331 11.677 43.579-8.804 15.249-28.331 20.481-43.58 11.678 8.804 15.248 3.572 34.775-11.677 43.579-15.248 8.803-34.775 3.571-43.579-11.677 0 17.607-14.295 31.902-31.902 31.902-17.608 0-31.902-14.295-31.902-31.902-8.804 15.248-28.331 20.48-43.58 11.677-15.248-8.804-20.48-28.331-11.677-43.579-15.248 8.803-34.775 3.571-43.579-11.678-8.804-15.248-3.571-34.775 11.677-43.579-17.607 0-31.902-14.295-31.902-31.902s14.295-31.902 31.902-31.902c-15.248-8.804-20.481-28.331-11.677-43.58 8.804-15.248 28.331-20.48 43.579-11.677-8.803-15.248-3.571-34.775 11.677-43.579 15.249-8.804 34.776-3.571 43.58 11.677z" fill="#f90000" transform="translate(-182.4363 -259.475)"/><path d="m.139-.019v-.45h-.096c-.005 0-.009-.002-.012-.006-.004-.003-.006-.008-.006-.013v-.063c0-.006.002-.011.006-.015l.146-.114h.092c.005 0 .009.002.013.005.003.004.005.009.005.014v.642c0 .005-.002.01-.005.013-.004.004-.008.006-.013.006h-.111c-.005 0-.01-.002-.013-.006-.004-.003-.006-.008-.006-.013z" fill="#fff" fill-rule="nonzero" transform="matrix(288 0 0 288 93.561 252.5248)"/></svg>