<svg clip-rule="evenodd" fill-rule="evenodd" stroke-linejoin="round" stroke-miterlimit="2" viewBox="0 0 302 302" xmlns="http://www.w3.org/2000/svg"><path d="m301.498 291.378c0-17.607 14.294-31.902 31.902-31.902 17.607 0 31.902 14.295 31.902 31.902 8.804-15.248 28.331-20.481 43.579-11.677 15.249 8.804 20.481 28.331 11.677 43.579 15.249-8.803 34.776-3.571 43.58 11.677 8.803 15.249 3.571 34.776-11.677 43.58 17.607 0 31.902 14.295 31.902 31.902s-14.295 31.902-31.902 31.902c15.248 8.804 20.48 28.331 11.677 43.579-8.804 15.249-28.331 20.481-43.58 11.678 8.804 15.248 3.572 34.775-11.677 43.579-15.248 8.803-34.775 3.571-43.579-11.677 0 17.607-14.295 31.902-31.902 31.902-17.608 0-31.902-14.295-31.902-31.902-8.804 15.248-28.331 20.48-43.58 11.677-15.248-8.804-20.48-28.331-11.677-43.579-15.248 8.803-34.775 3.571-43.579-11.678-8.804-15.248-3.571-34.775 11.677-43.579-17.607 0-31.902-14.295-31.902-31.902s14.295-31.902 31.902-31.902c-15.248-8.804-20.481-28.331-11.677-43.58 8.804-15.248 28.331-20.48 43.579-11.677-8.803-15.248-3.571-34.775 11.677-43.579 15.249-8.804 34.776-3.571 43.58 11.677z" fill="#f98a00" transform="translate(-182.436 -259.4756)"/><path d="m.023-.019v-.02c.115-.151.204-.274.265-.367.017-.027.026-.052.026-.076 0-.02-.008-.037-.024-.051s-.037-.021-.064-.021c-.035 0-.067.017-.097.05-.009.009-.019.009-.028 0l-.061-.062c-.009-.008-.01-.017-.001-.026.002-.003.005-.006.01-.011.004-.004.013-.012.026-.023s.027-.021.042-.03.033-.017.056-.024c.022-.007.044-.01.066-.01.069 0 .125.019.166.058s.061.087.061.144c0 .024-.003.045-.008.062-.006.017-.016.04-.031.068-.009.017-.023.039-.041.065-.019.026-.041.057-.068.094s-.045.06-.052.071h.176c.005 0 .01.002.014.006.003.004.005.008.005.013v.09c0 .005-.002.009-.005.013-.004.004-.009.006-.014.006h-.4c-.005 0-.01-.002-.013-.006-.004-.003-.006-.008-.006-.013z" fill="#fff" fill-rule="nonzero" transform="matrix(288 0 0 288 81.1044 247.5119)"/></svg>