<?xml version="1.0" encoding="UTF-8" standalone="no"?>
<!DOCTYPE svg PUBLIC "-//W3C//DTD SVG 1.1//EN" "http://www.w3.org/Graphics/SVG/1.1/DTD/svg11.dtd">
<svg width="100%" height="100%" viewBox="0 0 302 302" version="1.1" xmlns="http://www.w3.org/2000/svg" xmlns:xlink="http://www.w3.org/1999/xlink" xml:space="preserve" xmlns:serif="http://www.serif.com/" style="fill-rule:evenodd;clip-rule:evenodd;stroke-linejoin:round;stroke-miterlimit:2;">
    <g transform="matrix(1,0,0,1,-388.757,-171.373)">
        <g transform="matrix(1,0,0,1,330.661,23.5834)">
            <g transform="matrix(1,0,0,1,-124.34,-111.686)">
                <path d="M301.498,291.378C301.498,273.771 315.792,259.476 333.4,259.476C351.007,259.476 365.302,273.771 365.302,291.378C374.106,276.13 393.633,270.897 408.881,279.701C424.13,288.505 429.362,308.032 420.558,323.28C435.807,314.477 455.334,319.709 464.138,334.957C472.941,350.206 467.709,369.733 452.461,378.537C470.068,378.537 484.363,392.832 484.363,410.439C484.363,428.046 470.068,442.341 452.461,442.341C467.709,451.145 472.941,470.672 464.138,485.92C455.334,501.169 435.807,506.401 420.558,497.598C429.362,512.846 424.13,532.373 408.881,541.177C393.633,549.98 374.106,544.748 365.302,529.5C365.302,547.107 351.007,561.402 333.4,561.402C315.792,561.402 301.498,547.107 301.498,529.5C292.694,544.748 273.167,549.98 257.918,541.177C242.67,532.373 237.438,512.846 246.241,497.598C230.993,506.401 211.466,501.169 202.662,485.92C193.858,470.672 199.091,451.145 214.339,442.341C196.732,442.341 182.437,428.046 182.437,410.439C182.437,392.832 196.732,378.537 214.339,378.537C199.091,369.733 193.858,350.206 202.662,334.957C211.466,319.709 230.993,314.477 246.241,323.28C237.438,308.032 242.67,288.505 257.918,279.701C273.167,270.897 292.694,276.13 301.498,291.378Z" style="fill:rgb(249,138,0);"/>
            </g>
            <g transform="matrix(1,0,0,1,51.7872,-75.9695)">
                <g transform="matrix(288,0,0,288,235.445,471.271)">
                </g>
                <text x="87.413px" y="471.271px" style="font-family:'BrandonGrotesque-Black', 'Brandon Grotesque', sans-serif;font-weight:500;font-size:288px;fill:white;">2</text>
            </g>
        </g>
    </g>
</svg>
