<svg clip-rule="evenodd" fill-rule="evenodd" stroke-linejoin="round" stroke-miterlimit="2" viewBox="0 0 302 302" xmlns="http://www.w3.org/2000/svg"><path d="m301.498 291.378c0-17.607 14.294-31.902 31.902-31.902 17.607 0 31.902 14.295 31.902 31.902 8.804-15.248 28.331-20.481 43.579-11.677 15.249 8.804 20.481 28.331 11.677 43.579 15.249-8.803 34.776-3.571 43.58 11.677 8.803 15.249 3.571 34.776-11.677 43.58 17.607 0 31.902 14.295 31.902 31.902s-14.295 31.902-31.902 31.902c15.248 8.804 20.48 28.331 11.677 43.579-8.804 15.249-28.331 20.481-43.58 11.678 8.804 15.248 3.572 34.775-11.677 43.579-15.248 8.803-34.775 3.571-43.579-11.677 0 17.607-14.295 31.902-31.902 31.902-17.608 0-31.902-14.295-31.902-31.902-8.804 15.248-28.331 20.48-43.58 11.677-15.248-8.804-20.48-28.331-11.677-43.579-15.248 8.803-34.775 3.571-43.579-11.678-8.804-15.248-3.571-34.775 11.677-43.579-17.607 0-31.902-14.295-31.902-31.902s14.295-31.902 31.902-31.902c-15.248-8.804-20.481-28.331-11.677-43.58 8.804-15.248 28.331-20.48 43.579-11.677-8.803-15.248-3.571-34.775 11.677-43.579 15.249-8.804 34.776-3.571 43.58 11.677z" fill="#00893c" transform="translate(-182.436 -259.475)"/><path d="m.03-.079c-.007-.008-.006-.016.001-.025l.063-.063c.008-.008.016-.009.025-.002.041.031.078.046.11.046.022 0 .042-.008.06-.024s.027-.035.027-.056c0-.023-.011-.042-.032-.058-.022-.015-.051-.023-.087-.023h-.056c-.005 0-.009-.002-.013-.006s-.006-.008-.006-.013v-.083c0-.005.002-.01.006-.014.003-.003.008-.005.013-.005h.056c.034 0 .06-.007.079-.022.019-.014.028-.032.028-.055 0-.021-.008-.039-.023-.054-.016-.014-.035-.021-.057-.021-.035 0-.064.013-.087.04-.008.009-.017.01-.027.001l-.061-.06c-.009-.008-.009-.017 0-.026.002-.003.005-.006.01-.01.004-.003.013-.01.026-.021.013-.01.027-.019.041-.027.014-.007.031-.014.052-.021.021-.006.041-.009.062-.009.06 0 .111.017.153.05.042.034.063.078.063.133 0 .035-.011.067-.032.095s-.045.048-.071.06v.003c.029.013.057.034.083.064.025.031.038.065.038.104 0 .055-.022.1-.065.136-.043.037-.099.055-.168.055-.039 0-.074-.006-.106-.018s-.055-.024-.069-.035c-.015-.011-.027-.023-.036-.036z" fill="#fff" fill-rule="nonzero" transform="matrix(288 0 0 288 83.8413 253.5402)"/></svg>